<svg xmlns="http://www.w3.org/2000/svg" width="64" height="64"><path fill="#7FFFD4" d="M48 33c-1.5 1-17.583 1.333-20.25.17s0-5.17 0-5.17H20v8l31.5-.5L48 33zm-36 8.167c-2-.833-2-1.583-2-3.167s1.5-2 1.5-2H4l4 8h43.5l1.584-1.083C51.835 43.833 14 42 12 41.167zm0-8.75C8 32 7.585 36 7.585 36l5.498-.667c-2.334-1-1.083-2.916-1.083-2.916zm11-7.589c3 2.328 5.828 0 5.828 0l-5.656-5.656S20 22.5 23 24.828z"/><path fill="#01627C" d="M60.924 35.617A1 1 0 0 0 60 35h-7.586l-3-3 3.334-3.334c.912-.912-.502-2.326-1.414-1.414L47.586 31H43v-3a1 1 0 0 0-1-1H20a1 1 0 0 0-1 1v7h-2.102c-.694-3.41-4.746-5.092-7.653-3.169l-2.538-2.538c-.912-.912-2.326.502-1.414 1.414l2.536 2.536A4.987 4.987 0 0 0 7.103 35c-1.041 0-2.346-.232-3.356.033-1.46.383-.324 2.047.052 2.799l3.308 6.615A.996.996 0 0 0 8 45h43.97c.649 0 1.15-.707 1.569-1.125l6.244-6.244.924-.924a1 1 0 0 0 .217-1.09c-.154-.373.155.374 0 0zM21 29h20v2H21v-2zm0 4h26.586l2 2H21v-2zm-11.128.882c1.548-1.526 4.212-.935 4.943 1.118H9.183c.147-.414.374-.798.689-1.118.577-.569-.315.32 0 0zM51.586 43H8.618l-3-6h51.968l-6 6z"/><path fill="#01627C" d="M43.715 39H20.286c-1.29 0-1.29 2 0 2h23.429c1.29 0 1.29-2 0-2zM56 47.08c-1.121 0-2.108.464-2.893 1.25-.743.745-1.268 1.865-2.213 2.375-2.128 1.149-3.344-2.064-4.77-3.003-2.14-1.409-4.383-.277-5.789 1.508-.617.784-1.243 1.709-2.348 1.709-1.183 0-1.824-1.062-2.485-1.885-1.439-1.791-3.82-2.707-5.85-1.188-1.332.997-2.663 4.198-4.748 2.741-.825-.577-1.314-1.551-2.02-2.258-.866-.869-1.978-1.329-3.213-1.239-1.089.079-2.004.624-2.734 1.412-.693.748-1.249 1.91-2.244 2.295-2.147.831-3.234-2.349-4.778-3.229-.759-.433-2.544-.98-2.88.245-.388 1.41 1.543 1.15 2.235 1.74.773.659 1.263 1.593 2.011 2.283a3.995 3.995 0 0 0 3.343 1.037c1.053-.157 1.9-.769 2.587-1.554.66-.756 1.25-1.931 2.301-2.186 2.146-.521 3.112 2.606 4.794 3.417 2.405 1.159 4.262-.42 5.676-2.192.637-.797 1.391-1.492 2.492-1.225 1.05.255 1.64 1.43 2.3 2.186 1.553 1.778 4.114 2.19 5.93.517 1.134-1.044 2.25-3.588 4.185-2.543.811.438 1.298 1.352 1.889 2.027.618.707 1.37 1.287 2.302 1.5 2.228.508 3.642-.875 4.909-2.461.273-.342.561-.694.923-.947.445-.311.865-.233 1.354-.367 1.091-.301.867-1.965-.266-1.965z"/><path fill="#01627C" d="M56 51.08c-1.121 0-2.108.464-2.893 1.25-.743.745-1.268 1.865-2.213 2.375-2.128 1.149-3.344-2.064-4.77-3.003-2.14-1.409-4.383-.277-5.789 1.508-.617.784-1.243 1.709-2.348 1.709-1.183 0-1.824-1.062-2.485-1.885-1.439-1.791-3.82-2.707-5.85-1.188-1.332.997-2.663 4.198-4.748 2.741-.825-.577-1.314-1.551-2.02-2.258-.866-.869-1.978-1.329-3.213-1.239-1.089.079-2.004.624-2.734 1.412-.693.748-1.249 1.91-2.244 2.295-2.147.831-3.234-2.349-4.778-3.229-.759-.433-2.544-.98-2.88.245-.388 1.41 1.543 1.15 2.235 1.74.773.659 1.263 1.593 2.011 2.283a3.995 3.995 0 0 0 3.343 1.037c1.053-.157 1.9-.769 2.587-1.554.66-.756 1.25-1.931 2.301-2.186 2.146-.521 3.112 2.606 4.794 3.417 2.405 1.159 4.262-.42 5.676-2.192.637-.797 1.391-1.492 2.492-1.225 1.05.255 1.64 1.43 2.3 2.186 1.553 1.778 4.114 2.19 5.93.517 1.134-1.044 2.25-3.588 4.185-2.543.811.438 1.298 1.352 1.889 2.027.618.707 1.37 1.287 2.302 1.5 2.228.508 3.642-.875 4.909-2.461.273-.342.561-.694.923-.947.445-.311.865-.233 1.354-.367 1.091-.301.867-1.965-.266-1.965zM29.535 24.121 27.414 22l1.293-1.293c.912-.912-.502-2.326-1.414-1.414L26 20.586l-2.121-2.121c-1.426-1.425-2.727 1.968-2.842 2.925a5.036 5.036 0 0 0 1.429 4.144 5.04 5.04 0 0 0 4.145 1.43c.955-.116 4.35-1.419 2.924-2.843zM26 25c-2.161 0-3.649-2.334-2.708-4.294l4.002 4.002A2.987 2.987 0 0 1 26 25z"/></svg>